<mxfile host="65bd71144e">
    <diagram id="Hr1QnfBsF9iKasQvf_z3" name="Page-3">
        <mxGraphModel dx="450" dy="810" grid="1" gridSize="10" guides="1" tooltips="1" connect="1" arrows="1" fold="1" page="1" pageScale="1" pageWidth="1169" pageHeight="827" math="0" shadow="0">
            <root>
                <mxCell id="0"/>
                <mxCell id="1" parent="0"/>
                <mxCell id="_rsMd5oVkelhD_smwz4v-26" style="edgeStyle=none;html=1;strokeWidth=1;fontSize=15;endArrow=ERmany;endFill=0;endSize=6;startArrow=ERone;startFill=0;fillColor=#fff2cc;strokeColor=#d6b656;" parent="1" source="_rsMd5oVkelhD_smwz4v-14" target="_rsMd5oVkelhD_smwz4v-24" edge="1">
                    <mxGeometry relative="1" as="geometry"/>
                </mxCell>
                <mxCell id="_rsMd5oVkelhD_smwz4v-14" value="&lt;p style=&quot;margin: 4px 0px 0px; text-align: center; font-size: 15px;&quot;&gt;&lt;b style=&quot;font-size: 15px;&quot;&gt;Users&lt;/b&gt;&lt;/p&gt;&lt;hr style=&quot;font-size: 15px;&quot;&gt;&lt;p style=&quot;margin: 0px 0px 0px 4px; font-size: 15px;&quot;&gt;+ ID: int&lt;/p&gt;&lt;p style=&quot;margin: 0px 0px 0px 4px; font-size: 15px;&quot;&gt;+ username: string&lt;/p&gt;&lt;p style=&quot;margin: 0px 0px 0px 4px; font-size: 15px;&quot;&gt;+ role: enum&lt;/p&gt;&lt;p style=&quot;margin: 0px 0px 0px 4px; font-size: 15px;&quot;&gt;+ name: string&lt;/p&gt;&lt;p style=&quot;margin: 0px 0px 0px 4px; font-size: 15px;&quot;&gt;+ email: string&lt;/p&gt;" style="verticalAlign=top;align=left;overflow=fill;fontSize=15;fontFamily=Helvetica;html=1;shadow=0;labelBackgroundColor=none;sketch=0;opacity=80;fillColor=#d5e8d4;strokeColor=#82b366;" parent="1" vertex="1">
                    <mxGeometry x="112.5" y="90" width="135" height="130" as="geometry"/>
                </mxCell>
                <mxCell id="_rsMd5oVkelhD_smwz4v-29" style="edgeStyle=none;html=1;strokeWidth=1;fontSize=15;endArrow=ERzeroToMany;endFill=0;endSize=6;startArrow=ERone;startFill=0;fillColor=#fff2cc;strokeColor=#d6b656;" parent="1" source="_rsMd5oVkelhD_smwz4v-15" target="_rsMd5oVkelhD_smwz4v-20" edge="1">
                    <mxGeometry relative="1" as="geometry"/>
                </mxCell>
                <mxCell id="0AdER6gKHzJozFFwZWRO-1" style="edgeStyle=none;html=1;fillColor=#fff2cc;strokeColor=#d6b656;endArrow=ERzeroToMany;endFill=0;startArrow=ERone;startFill=0;" edge="1" parent="1" source="_rsMd5oVkelhD_smwz4v-15" target="_rsMd5oVkelhD_smwz4v-21">
                    <mxGeometry relative="1" as="geometry"/>
                </mxCell>
                <mxCell id="_rsMd5oVkelhD_smwz4v-15" value="&lt;p style=&quot;margin: 4px 0px 0px; text-align: center; font-size: 15px;&quot;&gt;&lt;b style=&quot;font-size: 15px;&quot;&gt;Recipes&lt;/b&gt;&lt;/p&gt;&lt;hr style=&quot;font-size: 15px;&quot;&gt;&lt;p style=&quot;margin: 0px 0px 0px 4px; font-size: 15px;&quot;&gt;+ ID: int&lt;/p&gt;&lt;p style=&quot;margin: 0px 0px 0px 4px; font-size: 15px;&quot;&gt;+ name: string&lt;/p&gt;&lt;p style=&quot;margin: 0px 0px 0px 4px; font-size: 15px;&quot;&gt;+ externalPage: string&lt;/p&gt;&lt;p style=&quot;margin: 0px 0px 0px 4px; font-size: 15px;&quot;&gt;+ authorID: string&lt;/p&gt;&lt;p style=&quot;margin: 0px 0px 0px 4px; font-size: 15px;&quot;&gt;+ timeCreated: datetime&lt;/p&gt;&lt;p style=&quot;margin: 0px 0px 0px 4px; font-size: 15px;&quot;&gt;+ expectedTime: int&lt;/p&gt;&lt;p style=&quot;margin: 0px 0px 0px 4px; font-size: 15px;&quot;&gt;+ difficulty: enum&lt;/p&gt;&lt;p style=&quot;margin: 0px 0px 0px 4px; font-size: 15px;&quot;&gt;+ description: string&lt;/p&gt;&lt;p style=&quot;margin: 0px 0px 0px 4px; font-size: 15px;&quot;&gt;+ instructions: string&lt;/p&gt;" style="verticalAlign=top;align=left;overflow=fill;fontSize=15;fontFamily=Helvetica;html=1;shadow=0;labelBackgroundColor=none;sketch=0;opacity=80;fillColor=#d5e8d4;strokeColor=#82b366;" parent="1" vertex="1">
                    <mxGeometry x="450" y="55" width="170" height="205" as="geometry"/>
                </mxCell>
                <mxCell id="_rsMd5oVkelhD_smwz4v-34" style="edgeStyle=none;html=1;strokeWidth=1;fontSize=15;endArrow=ERmany;endFill=0;endSize=6;startArrow=ERone;startFill=0;fillColor=#fff2cc;strokeColor=#d6b656;" parent="1" source="_rsMd5oVkelhD_smwz4v-16" target="_rsMd5oVkelhD_smwz4v-22" edge="1">
                    <mxGeometry relative="1" as="geometry"/>
                </mxCell>
                <mxCell id="_rsMd5oVkelhD_smwz4v-16" value="&lt;p style=&quot;margin: 4px 0px 0px; text-align: center; font-size: 15px;&quot;&gt;&lt;b style=&quot;font-size: 15px;&quot;&gt;Groups&lt;/b&gt;&lt;/p&gt;&lt;hr style=&quot;font-size: 15px;&quot;&gt;&lt;p style=&quot;margin: 0px 0px 0px 4px; font-size: 15px;&quot;&gt;+ ID: int&lt;/p&gt;&lt;p style=&quot;margin: 0px 0px 0px 4px; font-size: 15px;&quot;&gt;+ name: string&lt;/p&gt;" style="verticalAlign=top;align=left;overflow=fill;fontSize=15;fontFamily=Helvetica;html=1;shadow=0;labelBackgroundColor=none;sketch=0;opacity=80;fillColor=#d5e8d4;strokeColor=#82b366;" parent="1" vertex="1">
                    <mxGeometry x="127.5" y="414" width="105" height="76" as="geometry"/>
                </mxCell>
                <mxCell id="_rsMd5oVkelhD_smwz4v-17" value="&lt;p style=&quot;margin: 4px 0px 0px; text-align: center; font-size: 15px;&quot;&gt;&lt;b style=&quot;font-size: 15px;&quot;&gt;ShoppingList&lt;/b&gt;&lt;/p&gt;&lt;hr style=&quot;font-size: 15px;&quot;&gt;&lt;p style=&quot;margin: 0px 0px 0px 4px; font-size: 15px;&quot;&gt;+ ID: int&lt;/p&gt;&lt;p style=&quot;margin: 0px 0px 0px 4px; font-size: 15px;&quot;&gt;+ name: string&lt;/p&gt;&lt;p style=&quot;margin: 0px 0px 0px 4px; font-size: 15px;&quot;&gt;+ groupID: string&lt;/p&gt;" style="verticalAlign=top;align=left;overflow=fill;fontSize=15;fontFamily=Helvetica;html=1;shadow=0;labelBackgroundColor=none;sketch=0;opacity=80;fillColor=#d5e8d4;strokeColor=#82b366;" parent="1" vertex="1">
                    <mxGeometry x="390" y="404" width="120" height="96" as="geometry"/>
                </mxCell>
                <mxCell id="_rsMd5oVkelhD_smwz4v-31" style="edgeStyle=none;html=1;strokeWidth=1;fontSize=15;endArrow=ERone;endFill=0;endSize=6;startArrow=ERmany;startFill=0;fillColor=#fff2cc;strokeColor=#d6b656;" parent="1" source="_rsMd5oVkelhD_smwz4v-19" target="_rsMd5oVkelhD_smwz4v-17" edge="1">
                    <mxGeometry relative="1" as="geometry"/>
                </mxCell>
                <mxCell id="_rsMd5oVkelhD_smwz4v-19" value="&lt;p style=&quot;margin: 4px 0px 0px; text-align: center; font-size: 15px;&quot;&gt;&lt;b style=&quot;font-size: 15px;&quot;&gt;ShoppingItem&lt;/b&gt;&lt;/p&gt;&lt;hr style=&quot;font-size: 15px;&quot;&gt;&lt;p style=&quot;margin: 0px 0px 0px 4px; font-size: 15px;&quot;&gt;+ ID: int&lt;/p&gt;&lt;p style=&quot;margin: 0px 0px 0px 4px; font-size: 15px;&quot;&gt;+ shoppingListID: int&lt;/p&gt;&lt;p style=&quot;margin: 0px 0px 0px 4px; font-size: 15px;&quot;&gt;+ total: int&lt;/p&gt;&lt;p style=&quot;margin: 0px 0px 0px 4px; font-size: 15px;&quot;&gt;+ name: int&lt;/p&gt;&lt;p style=&quot;margin: 0px 0px 0px 4px; font-size: 15px;&quot;&gt;+ completed: bool&lt;/p&gt;" style="verticalAlign=top;align=left;overflow=fill;fontSize=15;fontFamily=Helvetica;html=1;shadow=0;labelBackgroundColor=none;sketch=0;opacity=80;fillColor=#d5e8d4;strokeColor=#82b366;" parent="1" vertex="1">
                    <mxGeometry x="700" y="384.25" width="150" height="135.5" as="geometry"/>
                </mxCell>
                <mxCell id="_rsMd5oVkelhD_smwz4v-20" value="&lt;p style=&quot;margin: 4px 0px 0px; text-align: center; font-size: 15px;&quot;&gt;&lt;b style=&quot;font-size: 15px;&quot;&gt;Image&lt;/b&gt;&lt;/p&gt;&lt;hr style=&quot;font-size: 15px;&quot;&gt;&lt;p style=&quot;margin: 0px 0px 0px 4px; font-size: 15px;&quot;&gt;+ ID: int&lt;/p&gt;&lt;p style=&quot;margin: 0px 0px 0px 4px; font-size: 15px;&quot;&gt;+ recipeID: int&lt;/p&gt;&lt;p style=&quot;margin: 0px 0px 0px 4px; font-size: 15px;&quot;&gt;+ target: string&lt;/p&gt;" style="verticalAlign=top;align=left;overflow=fill;fontSize=15;fontFamily=Helvetica;html=1;shadow=0;labelBackgroundColor=none;sketch=0;opacity=80;fillColor=#d5e8d4;strokeColor=#82b366;" parent="1" vertex="1">
                    <mxGeometry x="477.5" y="290" width="115" height="100" as="geometry"/>
                </mxCell>
                <mxCell id="_rsMd5oVkelhD_smwz4v-21" value="&lt;p style=&quot;margin: 4px 0px 0px; text-align: center; font-size: 15px;&quot;&gt;&lt;b style=&quot;font-size: 15px;&quot;&gt;Ingredients&lt;/b&gt;&lt;/p&gt;&lt;hr style=&quot;font-size: 15px;&quot;&gt;&lt;p style=&quot;margin: 0px 0px 0px 4px; font-size: 15px;&quot;&gt;+ ID: int&lt;/p&gt;&lt;p style=&quot;margin: 0px 0px 0px 4px; font-size: 15px;&quot;&gt;+ name: string&lt;/p&gt;&lt;p style=&quot;margin: 0px 0px 0px 4px; font-size: 15px;&quot;&gt;+ recipeID: string&lt;/p&gt;&lt;p style=&quot;margin: 0px 0px 0px 4px; font-size: 15px;&quot;&gt;+ amount: string&lt;/p&gt;" style="verticalAlign=top;align=left;overflow=fill;fontSize=15;fontFamily=Helvetica;html=1;shadow=0;labelBackgroundColor=none;sketch=0;opacity=80;fillColor=#d5e8d4;strokeColor=#82b366;" parent="1" vertex="1">
                    <mxGeometry x="720" y="97.5" width="130" height="120" as="geometry"/>
                </mxCell>
                <mxCell id="_rsMd5oVkelhD_smwz4v-35" style="edgeStyle=none;html=1;strokeWidth=1;fontSize=15;endArrow=ERone;endFill=0;endSize=6;startArrow=ERmany;startFill=0;fillColor=#fff2cc;strokeColor=#d6b656;" parent="1" source="_rsMd5oVkelhD_smwz4v-22" target="_rsMd5oVkelhD_smwz4v-14" edge="1">
                    <mxGeometry relative="1" as="geometry"/>
                </mxCell>
                <mxCell id="_rsMd5oVkelhD_smwz4v-22" value="&lt;p style=&quot;margin: 4px 0px 0px; text-align: center; font-size: 15px;&quot;&gt;&lt;b style=&quot;font-size: 15px;&quot;&gt;UsersGroupsTBL&lt;/b&gt;&lt;/p&gt;&lt;hr style=&quot;font-size: 15px;&quot;&gt;&lt;p style=&quot;margin: 0px 0px 0px 4px; font-size: 15px;&quot;&gt;+ userID: int&lt;/p&gt;&lt;p style=&quot;margin: 0px 0px 0px 4px; font-size: 15px;&quot;&gt;+ groupID: int&lt;/p&gt;" style="verticalAlign=top;align=left;overflow=fill;fontSize=15;fontFamily=Helvetica;html=1;shadow=0;labelBackgroundColor=none;sketch=0;opacity=80;fillColor=#dae8fc;strokeColor=#6c8ebf;" parent="1" vertex="1">
                    <mxGeometry x="110" y="280" width="140" height="80" as="geometry"/>
                </mxCell>
                <mxCell id="_rsMd5oVkelhD_smwz4v-33" style="edgeStyle=none;html=1;strokeWidth=1;fontSize=15;endArrow=ERone;endFill=0;endSize=6;startArrow=ERmany;startFill=0;fillColor=#fff2cc;strokeColor=#d6b656;" parent="1" source="_rsMd5oVkelhD_smwz4v-17" target="_rsMd5oVkelhD_smwz4v-16" edge="1">
                    <mxGeometry relative="1" as="geometry">
                        <mxPoint x="310" y="457" as="sourcePoint"/>
                    </mxGeometry>
                </mxCell>
                <mxCell id="_rsMd5oVkelhD_smwz4v-27" style="edgeStyle=none;html=1;strokeWidth=1;fontSize=15;endArrow=ERone;endFill=0;endSize=6;startArrow=ERmany;startFill=0;fillColor=#fff2cc;strokeColor=#d6b656;" parent="1" source="_rsMd5oVkelhD_smwz4v-24" target="_rsMd5oVkelhD_smwz4v-15" edge="1">
                    <mxGeometry relative="1" as="geometry"/>
                </mxCell>
                <mxCell id="_rsMd5oVkelhD_smwz4v-24" value="&lt;p style=&quot;margin: 4px 0px 0px; text-align: center; font-size: 15px;&quot;&gt;&lt;b style=&quot;font-size: 15px;&quot;&gt;Favorite&lt;/b&gt;&lt;/p&gt;&lt;hr style=&quot;font-size: 15px;&quot;&gt;&lt;p style=&quot;margin: 0px 0px 0px 4px; font-size: 15px;&quot;&gt;+ userID: int&lt;/p&gt;&lt;p style=&quot;margin: 0px 0px 0px 4px; font-size: 15px;&quot;&gt;+ recipeID: int&lt;/p&gt;" style="verticalAlign=top;align=left;overflow=fill;fontSize=15;fontFamily=Helvetica;html=1;shadow=0;labelBackgroundColor=none;sketch=0;opacity=80;fillColor=#dae8fc;strokeColor=#6c8ebf;" parent="1" vertex="1">
                    <mxGeometry x="300" y="115" width="110" height="80" as="geometry"/>
                </mxCell>
            </root>
        </mxGraphModel>
    </diagram>
    <diagram id="IyIE3P-Ot-IRqX5LYdDq" name="Page-1">
        <mxGraphModel grid="1" page="1" gridSize="10" guides="1" tooltips="1" connect="1" arrows="1" fold="1" pageScale="1" pageWidth="1169" pageHeight="827" math="0" shadow="0">
            <root>
                <mxCell id="0"/>
                <mxCell id="1" parent="0"/>
                <mxCell id="27" value="system" style="shape=umlFrame;whiteSpace=wrap;html=1;fontSize=16;" parent="1" vertex="1">
                    <mxGeometry x="185" y="10" width="670" height="620" as="geometry"/>
                </mxCell>
                <mxCell id="23" style="edgeStyle=none;html=1;endArrow=none;endFill=0;fontSize=16;" parent="1" source="2" target="4" edge="1">
                    <mxGeometry relative="1" as="geometry"/>
                </mxCell>
                <mxCell id="2" value="Logged In User" style="shape=umlActor;verticalLabelPosition=bottom;verticalAlign=top;html=1;fontSize=16;" parent="1" vertex="1">
                    <mxGeometry x="70" y="270" width="30" height="60" as="geometry"/>
                </mxCell>
                <mxCell id="28" style="edgeStyle=none;html=1;endArrow=block;endFill=0;strokeWidth=1;endSize=20;fontSize=16;" parent="1" edge="1">
                    <mxGeometry relative="1" as="geometry">
                        <mxPoint x="85" y="520" as="sourcePoint"/>
                        <mxPoint x="85" y="360" as="targetPoint"/>
                    </mxGeometry>
                </mxCell>
                <mxCell id="3" value="Admin&lt;br style=&quot;font-size: 16px;&quot;&gt;" style="shape=umlActor;verticalLabelPosition=bottom;verticalAlign=top;html=1;fontSize=16;fillColor=#f8cecc;strokeColor=#b85450;" parent="1" vertex="1">
                    <mxGeometry x="70" y="530" width="30" height="60" as="geometry"/>
                </mxCell>
                <mxCell id="4" value="Manage recipes" style="ellipse;whiteSpace=wrap;html=1;fontSize=16;fillColor=#d5e8d4;strokeColor=#82b366;" parent="1" vertex="1">
                    <mxGeometry x="250" y="220" width="140" height="70" as="geometry"/>
                </mxCell>
                <mxCell id="44" style="edgeStyle=none;html=1;strokeWidth=1;endArrow=classic;endFill=1;endSize=6;fontSize=16;" parent="1" source="7" target="39" edge="1">
                    <mxGeometry relative="1" as="geometry"/>
                </mxCell>
                <mxCell id="48" value="&amp;lt;&amp;lt;include&amp;gt;&amp;gt;" style="edgeLabel;html=1;align=center;verticalAlign=middle;resizable=0;points=[];fontSize=16;" parent="44" vertex="1" connectable="0">
                    <mxGeometry x="-0.3862" relative="1" as="geometry">
                        <mxPoint x="-12" y="-7" as="offset"/>
                    </mxGeometry>
                </mxCell>
                <mxCell id="7" value="Share a recipe" style="ellipse;whiteSpace=wrap;html=1;fontSize=16;fillColor=#d5e8d4;strokeColor=#82b366;" parent="1" vertex="1">
                    <mxGeometry x="650" y="40" width="140" height="70" as="geometry"/>
                </mxCell>
                <mxCell id="34" style="edgeStyle=none;html=1;strokeWidth=1;endArrow=none;endFill=0;endSize=6;fontSize=16;" parent="1" source="9" target="2" edge="1">
                    <mxGeometry relative="1" as="geometry"/>
                </mxCell>
                <mxCell id="9" value="Manage shared &lt;br style=&quot;font-size: 16px;&quot;&gt;shopping lists" style="ellipse;whiteSpace=wrap;html=1;fontSize=16;fillColor=#d5e8d4;strokeColor=#82b366;" parent="1" vertex="1">
                    <mxGeometry x="480" y="370" width="140" height="70" as="geometry"/>
                </mxCell>
                <mxCell id="32" style="edgeStyle=none;html=1;strokeWidth=1;endArrow=none;endFill=0;endSize=6;fontSize=16;" parent="1" source="11" target="61" edge="1">
                    <mxGeometry relative="1" as="geometry"/>
                </mxCell>
                <mxCell id="11" value="Search for a recipe" style="ellipse;whiteSpace=wrap;html=1;fontSize=16;fillColor=#d5e8d4;strokeColor=#82b366;" parent="1" vertex="1">
                    <mxGeometry x="210" y="110" width="140" height="70" as="geometry"/>
                </mxCell>
                <mxCell id="35" style="edgeStyle=none;html=1;strokeWidth=1;endArrow=classic;endFill=1;endSize=6;fontSize=16;" parent="1" source="12" target="9" edge="1">
                    <mxGeometry relative="1" as="geometry"/>
                </mxCell>
                <mxCell id="58" value="&amp;lt;&amp;lt;include&amp;gt;&amp;gt;" style="edgeLabel;html=1;align=center;verticalAlign=middle;resizable=0;points=[];fontSize=16;" parent="35" vertex="1" connectable="0">
                    <mxGeometry x="-0.4277" y="-2" relative="1" as="geometry">
                        <mxPoint as="offset"/>
                    </mxGeometry>
                </mxCell>
                <mxCell id="12" value="Create a group" style="ellipse;whiteSpace=wrap;html=1;fontSize=16;fillColor=#d5e8d4;strokeColor=#82b366;" parent="1" vertex="1">
                    <mxGeometry x="700" y="310" width="140" height="70" as="geometry"/>
                </mxCell>
                <mxCell id="55" style="edgeStyle=none;html=1;strokeWidth=1;endArrow=none;endFill=0;endSize=6;fontSize=16;" parent="1" source="13" target="3" edge="1">
                    <mxGeometry relative="1" as="geometry"/>
                </mxCell>
                <mxCell id="13" value="Manage users" style="ellipse;whiteSpace=wrap;html=1;fontSize=16;fillColor=#f8cecc;strokeColor=#b85450;" parent="1" vertex="1">
                    <mxGeometry x="420" y="470" width="140" height="70" as="geometry"/>
                </mxCell>
                <mxCell id="22" style="edgeStyle=none;html=1;endArrow=classic;endFill=1;fontSize=16;" parent="1" source="21" target="4" edge="1">
                    <mxGeometry relative="1" as="geometry"/>
                </mxCell>
                <mxCell id="25" value="&amp;lt;&amp;lt;include&amp;gt;&amp;gt;" style="edgeLabel;html=1;align=center;verticalAlign=middle;resizable=0;points=[];fontSize=16;" parent="22" vertex="1" connectable="0">
                    <mxGeometry x="-0.1256" y="-1" relative="1" as="geometry">
                        <mxPoint as="offset"/>
                    </mxGeometry>
                </mxCell>
                <mxCell id="21" value="Get number of &lt;br style=&quot;font-size: 16px;&quot;&gt;&quot;favorites&quot;" style="ellipse;whiteSpace=wrap;html=1;fontSize=16;fillColor=#f8cecc;strokeColor=#b85450;" parent="1" vertex="1">
                    <mxGeometry x="540" y="220" width="140" height="70" as="geometry"/>
                </mxCell>
                <mxCell id="36" style="edgeStyle=none;html=1;strokeWidth=1;endArrow=classic;endFill=1;endSize=6;fontSize=16;" parent="1" source="30" target="9" edge="1">
                    <mxGeometry relative="1" as="geometry"/>
                </mxCell>
                <mxCell id="57" value="&amp;lt;include&amp;gt;&amp;gt;" style="edgeLabel;html=1;align=center;verticalAlign=middle;resizable=0;points=[];fontSize=16;" parent="36" vertex="1" connectable="0">
                    <mxGeometry x="-0.5196" y="3" relative="1" as="geometry">
                        <mxPoint x="-18" as="offset"/>
                    </mxGeometry>
                </mxCell>
                <mxCell id="30" value="Add/Remove&lt;br style=&quot;font-size: 16px;&quot;&gt;people" style="ellipse;whiteSpace=wrap;html=1;fontSize=16;fillColor=#d5e8d4;strokeColor=#82b366;" parent="1" vertex="1">
                    <mxGeometry x="715" y="420" width="140" height="70" as="geometry"/>
                </mxCell>
                <mxCell id="38" style="edgeStyle=none;html=1;strokeWidth=1;endArrow=classic;endFill=1;endSize=6;fontSize=16;" parent="1" source="37" target="9" edge="1">
                    <mxGeometry relative="1" as="geometry"/>
                </mxCell>
                <mxCell id="56" value="&amp;lt;&amp;lt;include&amp;gt;&amp;gt;" style="edgeLabel;html=1;align=center;verticalAlign=middle;resizable=0;points=[];fontSize=16;" parent="38" vertex="1" connectable="0">
                    <mxGeometry x="-0.2353" y="-4" relative="1" as="geometry">
                        <mxPoint as="offset"/>
                    </mxGeometry>
                </mxCell>
                <mxCell id="37" value="Add/Remove&lt;br style=&quot;font-size: 16px;&quot;&gt;shopping items" style="ellipse;whiteSpace=wrap;html=1;fontSize=16;fillColor=#d5e8d4;strokeColor=#82b366;" parent="1" vertex="1">
                    <mxGeometry x="630" y="530" width="140" height="70" as="geometry"/>
                </mxCell>
                <mxCell id="42" style="edgeStyle=none;html=1;strokeWidth=1;endArrow=none;endFill=0;endSize=6;fontSize=16;" parent="1" source="39" target="61" edge="1">
                    <mxGeometry relative="1" as="geometry">
                        <mxPoint x="60" y="120" as="targetPoint"/>
                    </mxGeometry>
                </mxCell>
                <mxCell id="39" value="View a recipe" style="ellipse;whiteSpace=wrap;html=1;fontSize=16;fillColor=#d5e8d4;strokeColor=#82b366;" parent="1" vertex="1">
                    <mxGeometry x="400" y="20" width="140" height="70" as="geometry"/>
                </mxCell>
                <mxCell id="67" style="edgeStyle=none;html=1;strokeWidth=1;fontSize=16;endArrow=none;endFill=0;endSize=6;" parent="1" source="40" target="2" edge="1">
                    <mxGeometry relative="1" as="geometry"/>
                </mxCell>
                <mxCell id="40" value="Move recipe &lt;br style=&quot;font-size: 16px;&quot;&gt;ingredients to&amp;nbsp;&lt;br style=&quot;font-size: 16px;&quot;&gt;shopping list" style="ellipse;whiteSpace=wrap;html=1;fontSize=16;fillColor=#f8cecc;strokeColor=#b85450;" parent="1" vertex="1">
                    <mxGeometry x="410" y="290" width="140" height="70" as="geometry"/>
                </mxCell>
                <mxCell id="66" style="edgeStyle=none;html=1;strokeWidth=1;fontSize=16;endArrow=none;endFill=0;endSize=6;" parent="1" source="43" target="2" edge="1">
                    <mxGeometry relative="1" as="geometry"/>
                </mxCell>
                <mxCell id="43" value="Favorite a recipe" style="ellipse;whiteSpace=wrap;html=1;fontSize=16;fillColor=#d5e8d4;strokeColor=#82b366;" parent="1" vertex="1">
                    <mxGeometry x="200" y="440" width="140" height="70" as="geometry"/>
                </mxCell>
                <mxCell id="52" style="edgeStyle=none;html=1;strokeWidth=1;endArrow=classic;endFill=1;endSize=6;fontSize=16;" parent="1" source="49" target="39" edge="1">
                    <mxGeometry relative="1" as="geometry"/>
                </mxCell>
                <mxCell id="54" value="&amp;lt;&amp;lt;include&amp;gt;&amp;gt;" style="edgeLabel;html=1;align=center;verticalAlign=middle;resizable=0;points=[];fontSize=16;" parent="52" vertex="1" connectable="0">
                    <mxGeometry x="-0.4092" y="-1" relative="1" as="geometry">
                        <mxPoint y="-6" as="offset"/>
                    </mxGeometry>
                </mxCell>
                <mxCell id="49" value="View price prediction" style="ellipse;whiteSpace=wrap;html=1;fontSize=16;fillColor=#f8cecc;strokeColor=#b85450;" parent="1" vertex="1">
                    <mxGeometry x="380" y="140" width="140" height="70" as="geometry"/>
                </mxCell>
                <mxCell id="51" style="edgeStyle=none;html=1;strokeWidth=1;endArrow=classic;endFill=1;endSize=6;fontSize=16;" parent="1" source="50" target="39" edge="1">
                    <mxGeometry relative="1" as="geometry"/>
                </mxCell>
                <mxCell id="53" value="&amp;lt;&amp;lt;include&amp;gt;&amp;gt;" style="edgeLabel;html=1;align=center;verticalAlign=middle;resizable=0;points=[];fontSize=16;" parent="51" vertex="1" connectable="0">
                    <mxGeometry x="-0.2868" y="2" relative="1" as="geometry">
                        <mxPoint as="offset"/>
                    </mxGeometry>
                </mxCell>
                <mxCell id="50" value="View nutrition value" style="ellipse;whiteSpace=wrap;html=1;fontSize=16;fillColor=#f8cecc;strokeColor=#b85450;" parent="1" vertex="1">
                    <mxGeometry x="530" y="110" width="140" height="70" as="geometry"/>
                </mxCell>
                <mxCell id="60" style="edgeStyle=none;html=1;strokeWidth=1;fontSize=16;endArrow=none;endFill=0;endSize=6;" parent="1" source="59" target="3" edge="1">
                    <mxGeometry relative="1" as="geometry"/>
                </mxCell>
                <mxCell id="59" value="Manage&lt;br&gt;student's&lt;br&gt;recipes" style="ellipse;whiteSpace=wrap;html=1;fontSize=16;fillColor=#f8cecc;strokeColor=#b85450;" parent="1" vertex="1">
                    <mxGeometry x="450" y="550" width="140" height="70" as="geometry"/>
                </mxCell>
                <mxCell id="61" value="Anonymous User" style="shape=umlActor;verticalLabelPosition=bottom;verticalAlign=top;html=1;fontSize=16;" parent="1" vertex="1">
                    <mxGeometry x="70" y="80" width="30" height="60" as="geometry"/>
                </mxCell>
                <mxCell id="63" style="edgeStyle=none;html=1;endArrow=block;endFill=0;strokeWidth=1;endSize=20;fontSize=16;" parent="1" edge="1">
                    <mxGeometry relative="1" as="geometry">
                        <mxPoint x="85" y="260" as="sourcePoint"/>
                        <mxPoint x="84.58" y="170" as="targetPoint"/>
                    </mxGeometry>
                </mxCell>
                <mxCell id="73" style="edgeStyle=none;html=1;strokeWidth=1;fontSize=16;endArrow=none;endFill=0;endSize=6;" parent="1" source="72" target="2" edge="1">
                    <mxGeometry relative="1" as="geometry"/>
                </mxCell>
                <mxCell id="72" value="Browse favorite&lt;br&gt;recipes" style="ellipse;whiteSpace=wrap;html=1;fontSize=16;fillColor=#d5e8d4;strokeColor=#82b366;" parent="1" vertex="1">
                    <mxGeometry x="300" y="379" width="140" height="70" as="geometry"/>
                </mxCell>
            </root>
        </mxGraphModel>
    </diagram>
    <diagram id="nUZX5MDGfAmhW_HwuuPa" name="Page-2">
        <mxGraphModel dx="1170" dy="810" grid="1" gridSize="10" guides="1" tooltips="1" connect="1" arrows="1" fold="1" page="1" pageScale="1" pageWidth="1169" pageHeight="827" math="0" shadow="0">
            <root>
                <mxCell id="0"/>
                <mxCell id="1" parent="0"/>
                <mxCell id="HuTz5oM3n_qXScXc4ynC-1" value="architecture" style="shape=umlFrame;whiteSpace=wrap;html=1;fontSize=20;width=120;height=30;" parent="1" vertex="1">
                    <mxGeometry x="250" y="120" width="490" height="400" as="geometry"/>
                </mxCell>
                <mxCell id="HuTz5oM3n_qXScXc4ynC-10" value="" style="html=1;shadow=0;labelBackgroundColor=none;sketch=0;fontSize=20;fillColor=#d5e8d4;strokeColor=#82b366;opacity=80;" parent="1" vertex="1">
                    <mxGeometry x="530" y="280" width="150" height="230" as="geometry"/>
                </mxCell>
                <mxCell id="HuTz5oM3n_qXScXc4ynC-9" value="" style="html=1;shadow=0;labelBackgroundColor=none;sketch=0;fontSize=20;fillColor=#f8cecc;strokeColor=#b85450;gradientColor=none;opacity=60;" parent="1" vertex="1">
                    <mxGeometry x="510" y="140" width="190" height="280" as="geometry"/>
                </mxCell>
                <mxCell id="HuTz5oM3n_qXScXc4ynC-16" style="edgeStyle=none;html=1;exitX=0.5;exitY=1;exitDx=0;exitDy=0;strokeWidth=1;fontSize=20;endArrow=classic;endFill=1;endSize=6;" parent="1" source="HuTz5oM3n_qXScXc4ynC-2" target="HuTz5oM3n_qXScXc4ynC-3" edge="1">
                    <mxGeometry relative="1" as="geometry"/>
                </mxCell>
                <mxCell id="HuTz5oM3n_qXScXc4ynC-19" value="http://backend:5000" style="edgeLabel;html=1;align=center;verticalAlign=middle;resizable=0;points=[];fontSize=20;" parent="HuTz5oM3n_qXScXc4ynC-16" vertex="1" connectable="0">
                    <mxGeometry x="-0.3571" y="4" relative="1" as="geometry">
                        <mxPoint as="offset"/>
                    </mxGeometry>
                </mxCell>
                <mxCell id="HuTz5oM3n_qXScXc4ynC-2" value="Frontend" style="html=1;fontSize=20;" parent="1" vertex="1">
                    <mxGeometry x="550" y="150" width="110" height="90" as="geometry"/>
                </mxCell>
                <mxCell id="HuTz5oM3n_qXScXc4ynC-20" style="edgeStyle=none;html=1;exitX=0.5;exitY=1;exitDx=0;exitDy=0;strokeWidth=1;fontSize=20;endArrow=classic;endFill=1;endSize=6;" parent="1" source="HuTz5oM3n_qXScXc4ynC-3" target="HuTz5oM3n_qXScXc4ynC-4" edge="1">
                    <mxGeometry relative="1" as="geometry"/>
                </mxCell>
                <mxCell id="HuTz5oM3n_qXScXc4ynC-21" value="mariadb://database:3306" style="edgeLabel;html=1;align=center;verticalAlign=middle;resizable=0;points=[];fontSize=20;" parent="HuTz5oM3n_qXScXc4ynC-20" vertex="1" connectable="0">
                    <mxGeometry x="-0.4286" y="2" relative="1" as="geometry">
                        <mxPoint y="5" as="offset"/>
                    </mxGeometry>
                </mxCell>
                <mxCell id="HuTz5oM3n_qXScXc4ynC-3" value="Backend" style="html=1;fontSize=20;" parent="1" vertex="1">
                    <mxGeometry x="550" y="290" width="110" height="90" as="geometry"/>
                </mxCell>
                <mxCell id="HuTz5oM3n_qXScXc4ynC-4" value="MariaDB" style="html=1;fontSize=20;" parent="1" vertex="1">
                    <mxGeometry x="550" y="450" width="110" height="50" as="geometry"/>
                </mxCell>
                <mxCell id="HuTz5oM3n_qXScXc4ynC-14" style="edgeStyle=none;html=1;strokeWidth=1;fontSize=20;endArrow=classic;endFill=1;endSize=6;" parent="1" source="HuTz5oM3n_qXScXc4ynC-5" target="HuTz5oM3n_qXScXc4ynC-2" edge="1">
                    <mxGeometry relative="1" as="geometry"/>
                </mxCell>
                <mxCell id="HuTz5oM3n_qXScXc4ynC-17" value="location /*" style="edgeLabel;html=1;align=center;verticalAlign=middle;resizable=0;points=[];fontSize=20;" parent="HuTz5oM3n_qXScXc4ynC-14" vertex="1" connectable="0">
                    <mxGeometry x="-0.2031" y="-3" relative="1" as="geometry">
                        <mxPoint x="-2" y="-7" as="offset"/>
                    </mxGeometry>
                </mxCell>
                <mxCell id="HuTz5oM3n_qXScXc4ynC-15" style="edgeStyle=none;html=1;strokeWidth=1;fontSize=20;endArrow=classic;endFill=1;endSize=6;" parent="1" source="HuTz5oM3n_qXScXc4ynC-5" target="HuTz5oM3n_qXScXc4ynC-3" edge="1">
                    <mxGeometry relative="1" as="geometry"/>
                </mxCell>
                <mxCell id="HuTz5oM3n_qXScXc4ynC-18" value="location /api/*" style="edgeLabel;html=1;align=center;verticalAlign=middle;resizable=0;points=[];fontSize=20;" parent="HuTz5oM3n_qXScXc4ynC-15" vertex="1" connectable="0">
                    <mxGeometry x="-0.1875" y="-5" relative="1" as="geometry">
                        <mxPoint x="9" y="6" as="offset"/>
                    </mxGeometry>
                </mxCell>
                <mxCell id="HuTz5oM3n_qXScXc4ynC-5" value="Nginx" style="html=1;fontSize=20;" parent="1" vertex="1">
                    <mxGeometry x="300" y="290" width="110" height="70" as="geometry"/>
                </mxCell>
                <mxCell id="HuTz5oM3n_qXScXc4ynC-12" style="edgeStyle=none;html=1;strokeWidth=1;fontSize=20;endArrow=classic;endFill=1;endSize=6;" parent="1" source="HuTz5oM3n_qXScXc4ynC-11" target="HuTz5oM3n_qXScXc4ynC-5" edge="1">
                    <mxGeometry relative="1" as="geometry"/>
                </mxCell>
                <mxCell id="HuTz5oM3n_qXScXc4ynC-13" value="request" style="edgeLabel;html=1;align=center;verticalAlign=middle;resizable=0;points=[];fontSize=20;" parent="HuTz5oM3n_qXScXc4ynC-12" vertex="1" connectable="0">
                    <mxGeometry x="-0.2778" y="4" relative="1" as="geometry">
                        <mxPoint x="15" y="-11" as="offset"/>
                    </mxGeometry>
                </mxCell>
                <mxCell id="HuTz5oM3n_qXScXc4ynC-11" value="User" style="shape=umlActor;verticalLabelPosition=bottom;verticalAlign=top;html=1;shadow=0;labelBackgroundColor=none;sketch=0;fontSize=20;gradientColor=none;opacity=80;" parent="1" vertex="1">
                    <mxGeometry x="80" y="295" width="30" height="60" as="geometry"/>
                </mxCell>
            </root>
        </mxGraphModel>
    </diagram>
</mxfile>
